<svg id="Layer_1" data-name="Layer 1" xmlns="http://www.w3.org/2000/svg" viewBox="0 0 2048 2048"><defs><style>.cls-1{fill:#0b0c00;}.cls-2{fill:#141311;stroke-width:42.02px;}.cls-2,.cls-3{stroke:#000;stroke-linecap:square;}.cls-3{stroke-width:42.19px;}</style></defs><g id="document"><path class="cls-1" d="M972.76,1002.87c14.32-206.48-141.62-385.68-348.09-400S239,744.47,224.66,951s141.61,385.67,348.09,400S958.43,1209.34,972.76,1002.87ZM614.28,752.48a225,225,0,1,1-240,208.85A224.67,224.67,0,0,1,614.28,752.48Z"/><path class="cls-1" d="M1207.86,1323.81a592.14,592.14,0,0,1,451.35,43.08c99-61.39,168.06-167.86,176.73-292.84,14.33-206.48-141.61-385.68-348.09-400s-385.68,141.61-400,348.09c-8.2,118.05,39.27,227.18,120,301.68Zm269.61-500.15a225,225,0,1,1-240,208.85A224.67,224.67,0,0,1,1477.47,823.66Z"/><path class="cls-2" d="M845.83,1094.27l70.81,4.91a106.46,106.46,0,1,1,212.41,14.74l70.81,4.92c6.78-97.72-67-182.52-164.73-189.3S852.61,996.55,845.83,1094.27Z"/><path d="M978,588.29c5.34-1.13,9.19-2.37,13.94-5.8,12.69-9.64,15.49-28.24,5.9-41.69a118.18,118.18,0,0,0-17.51-18.5c5.34-1.13,10.68-2.26,16.17-5.64,12.7-9.64,15.5-28.24,5.9-41.69-4.17-4.8-104.34-132-357.2-149.57l-1.49-.1-1.5-.11C389.3,307.64,274,419.91,268.42,424.79c-12.05,11.19-11.91,30.74-.66,42A22,22,0,0,0,283,474.66c-13.34,8.09-19,14.46-19.84,15.16-11.31,11.24-11.16,30.8.08,42.1,3.48,4,7.86,5.81,13,7.67a123.16,123.16,0,0,0-11.1,8.25c-9.6,8.35-10.69,24.06-2.39,34.41,4.88,5.6,10,7.46,16.74,7.93s12.18-2.16,17.68-5.54c1.6-1.39,106.24-90.35,333-75.36,224.32,17.07,319.42,119.89,319.37,120.63,4.87,5.6,10,7.46,16.74,7.93s12.17-2.16,17.67-5.54c9.6-8.35,10.69-24.06,2.39-34.41C987.85,597.24,984.32,594,978,588.29Z"/><path class="cls-3" d="M1008.49,1607.48l-25.39,69.8c192.65,70.09,405.9-29.37,476-222l-69.8-25.4C1333.16,1584.12,1162.76,1663.6,1008.49,1607.48Z"/></g></svg>